<svg xmlns="http://www.w3.org/2000/svg" viewBox="0 0 64.43 79.4"><defs><style>.cls-1{fill:#fff;}.cls-2{fill:#e28363;}.cls-3{fill:#943c38;}.cls-4{fill:#fec27b;}.cls-5{fill:#fb9447;}.cls-6{fill:#f3ba13;}.cls-7{fill:#ffd12d;}.cls-8{fill:#fa914d;}.cls-9{fill:#404040;}</style></defs><g id="Слой_2" data-name="Слой 2"><g id="Слой_1-2" data-name="Слой 1"><path class="cls-1" d="M31.54,36.5c9.69,0,18.28,7.4,18.28,13.11a24.56,24.56,0,1,0-37.39-1.27c0-5.7,9.42-11.84,19.11-11.84Z"/><path class="cls-2" d="M31.65,57.64a24.47,24.47,0,0,0,18.17-8c0-5.71-8.59-13.11-18.28-13.11S12.43,42.64,12.42,48.36a24.46,24.46,0,0,0,19.23,9.28Z"/><path class="cls-3" d="M21.36,18.05a1.58,1.58,0,0,0-.13-.91,1.52,1.52,0,0,0-.61-.69,1.57,1.57,0,0,0-1.76.1,1.64,1.64,0,0,0-.53.75,1.55,1.55,0,0,0,0,.93,1.52,1.52,0,0,0,.5.77,1.62,1.62,0,0,0,.85.36,1.43,1.43,0,0,0-.85.52,1.5,1.5,0,0,0-.29,1,1.43,1.43,0,0,0,1.28,1.35v0a1.25,1.25,0,0,0-.5.44,1.3,1.3,0,0,0-.19.66,1.2,1.2,0,0,0,.19.64,1.14,1.14,0,0,0,.5.45V26.3a2,2,0,0,0,2.1,2.27h.4l.37-10Z"/><path class="cls-3" d="M41.69,18.05a1.5,1.5,0,0,1,.13-.91,1.52,1.52,0,0,1,.61-.69,1.55,1.55,0,0,1,.89-.22,1.59,1.59,0,0,1,.87.32,1.58,1.58,0,0,1,.55,1.68,1.52,1.52,0,0,1-.5.77,1.66,1.66,0,0,1-.85.36,1.38,1.38,0,0,1,.84.52,1.45,1.45,0,0,1,.3,1,1.43,1.43,0,0,1-1.29,1.35v0a1.19,1.19,0,0,1,.7,1.1,1.22,1.22,0,0,1-.7,1.09V26.3a2,2,0,0,1-2.09,2.27h-.4l-.31-10Z"/><path class="cls-1" d="M31.66,49.28c-3.95,0-7.16-3-7.16-6.58s3.21-6.59,7.16-6.59a6.9,6.9,0,0,1,7.16,6.59c0,3.63-3.22,6.58-7.16,6.58Zm0-11.48a5.19,5.19,0,0,0-5.45,4.88,5.19,5.19,0,0,0,5.45,4.89,5.19,5.19,0,0,0,5.45-4.89,5.18,5.18,0,0,0-5.45-4.87Z"/><path class="cls-4" d="M29.94,44.07A7.68,7.68,0,0,1,26,43a5.42,5.42,0,0,0,5.39,4.75h.7a5.41,5.41,0,0,0,5.4-5.42V38a7.73,7.73,0,0,1-7.55,6.07Z"/><path class="cls-5" d="M32.07,32.56h-.68A5.43,5.43,0,0,0,26,38v4.34A5,5,0,0,0,26,43a7.74,7.74,0,0,0,11.49-5,5.51,5.51,0,0,0-.41-2.08,5.45,5.45,0,0,0-2.94-3,5.6,5.6,0,0,0-2.09-.41Z"/><path class="cls-4" d="M22.29,20.24v11a8.95,8.95,0,0,0,8.93,8.93h.64a8.95,8.95,0,0,0,8.93-8.93V20a3.63,3.63,0,0,0,0-.57A27,27,0,0,1,32,21.34a25.61,25.61,0,0,1-9.73-1.1Z"/><path class="cls-4" d="M31.91,11.12h-.69a8.87,8.87,0,0,0-2,.23c.71-.09,1.45-.16,2.2-.21Z"/><path class="cls-5" d="M31.91,11.12l-.48,0c-.75,0-1.49.11-2.2.2A8.94,8.94,0,0,0,22.29,20v.2A25.61,25.61,0,0,0,32,21.34a27.22,27.22,0,0,0,8.73-1.87,8.94,8.94,0,0,0-8.84-8.35Z"/><path class="cls-6" d="M31.82,20.29c7.21,0,13-2.29,13-5.11s-5.84-5.11-13-5.11-13,2.28-13,5.11,5.84,5.11,13.05,5.11Z"/><path class="cls-7" d="M31.82,16.24c-5.59,0-8.43-.77-10.12-2.17v-2.7a10.12,10.12,0,0,1,20.24,0v2.32c-2.36,1.85-4.53,2.53-10.12,2.53Z"/><path class="cls-6" d="M28.71,16.82l1-16.14A.73.73,0,0,1,29.92.2a.7.7,0,0,1,.49-.2h2.68a.76.76,0,0,1,.5.19.72.72,0,0,1,.22.48L34.91,16a.7.7,0,0,1,0,.29.87.87,0,0,1-.16.26.56.56,0,0,1-.24.16.69.69,0,0,1-.29.07H29"/><path class="cls-6" d="M26.66,1.74l-.34,8.62,2.13.09.34-8.63Z"/><path class="cls-6" d="M37,1.74l-2.13.08.34,8.63,2.12-.09Z"/><path class="cls-5" d="M31.16,23.07h0a1.27,1.27,0,0,0-1.27,1.28V26.9a1.28,1.28,0,0,0,1.27,1.28h0a1.28,1.28,0,0,0,1.28-1.28V24.35a1.28,1.28,0,0,0-1.28-1.28Z"/><path class="cls-5" d="M26.66,32.14c0,1.93,2.18,4.36,4.86,4.36s4.86-2.43,4.86-4.36Z"/><path class="cls-1" d="M27.09,32.24a4.52,4.52,0,0,0,4.43,3.51c2.69,0,4.44-2.13,4.44-3.51Z"/><path class="cls-8" d="M31.39,32.84h5.49a5.66,5.66,0,0,1-5.49,4Z"/><path class="cls-8" d="M31.39,32.84h-5.5a5.65,5.65,0,0,0,5.5,4Z"/><path class="cls-1" d="M35.67,32.42H27.29a.16.16,0,0,0-.09,0,.13.13,0,0,0-.08.07s0,0,0,.09a.17.17,0,0,0,0,.1,4.75,4.75,0,0,0,4.27,2.78h.15a4.81,4.81,0,0,0,4.3-2.78.3.3,0,0,0,0-.1.32.32,0,0,0,0-.09.23.23,0,0,0-.07-.07.16.16,0,0,0-.09,0Z"/><path class="cls-3" d="M25.87,34.05h-.08a1.47,1.47,0,0,1-1.41-1.55c.05-.95.85-3.15,7.16-3.15s7.1,2.22,7.14,3.17a1.56,1.56,0,0,1-.34,1,1.48,1.48,0,0,1-.9.52,1.42,1.42,0,0,1-1-.18,1.55,1.55,0,0,1-.66-.81c-.22-.16-1.17-.71-4.23-.71s-4.05.56-4.25.72a1.5,1.5,0,0,1-.55.74,1.45,1.45,0,0,1-.87.27Z"/><path class="cls-3" d="M25.18,23.1a.59.59,0,0,1-.34-.1.62.62,0,0,1-.27-.38.64.64,0,0,1,.06-.47,3.49,3.49,0,0,1,3.62-1.36.63.63,0,0,1,.23.08.61.61,0,0,1,.19.17.67.67,0,0,1,.1.23.53.53,0,0,1,0,.25.5.5,0,0,1-.09.24.75.75,0,0,1-.17.19.55.55,0,0,1-.22.1.77.77,0,0,1-.26,0,2.25,2.25,0,0,0-2.32.78.66.66,0,0,1-.24.2.62.62,0,0,1-.3.06Z"/><path class="cls-3" d="M27.35,24.79a1.16,1.16,0,0,1-.65-.2,1.2,1.2,0,0,1-.5-1.21,1.14,1.14,0,0,1,.32-.6,1.11,1.11,0,0,1,.6-.32,1.13,1.13,0,0,1,.68.06,1.14,1.14,0,0,1,.53.44,1.16,1.16,0,0,1,.2.65,1.24,1.24,0,0,1-.34.84,1.3,1.3,0,0,1-.39.25,1.13,1.13,0,0,1-.45.09Zm0-1.28a.07.07,0,0,0-.06,0,.11.11,0,0,0,0,.07c0,.11.2.11.2,0s0,0,0,0l0,0a.05.05,0,0,0,0,0Z"/><path class="cls-3" d="M37.5,23.11a.56.56,0,0,1-.31-.09.66.66,0,0,1-.23-.21A2.24,2.24,0,0,0,34.64,22a.65.65,0,0,1-.49-.11.69.69,0,0,1-.26-.42A.68.68,0,0,1,34,21a.65.65,0,0,1,.42-.26,3.46,3.46,0,0,1,3.62,1.37.67.67,0,0,1,.07.48.62.62,0,0,1-.29.4.76.76,0,0,1-.33.11Z"/><path class="cls-3" d="M35.32,24.79a1.21,1.21,0,0,1-1.09-.72,1.25,1.25,0,0,1-.07-.69,1.3,1.3,0,0,1,.32-.6,1.22,1.22,0,0,1,1.29-.26,1.19,1.19,0,0,1,.53.44,1.16,1.16,0,0,1,.2.65,1.14,1.14,0,0,1-.35.83,1.16,1.16,0,0,1-.83.35Zm0-1.28a.11.11,0,0,0-.07,0,.19.19,0,0,0,0,.07c0,.11.2.11.2,0s0,0,0,0l0,0s0,0,0,0Z"/><path class="cls-9" d="M2.64,66.42v12.8H0V66.42Zm5.09,5.47V74H1.91V71.89Zm.62-5.47v2.06H1.91V66.42Z"/><path class="cls-9" d="M14.55,77.07V72.84a2.07,2.07,0,0,0-.14-.79,1.16,1.16,0,0,0-.47-.51,1.48,1.48,0,0,0-.8-.19,1.67,1.67,0,0,0-.73.15,1.13,1.13,0,0,0-.48.41,1.18,1.18,0,0,0-.16.63H9.24a2.41,2.41,0,0,1,.28-1.15,2.77,2.77,0,0,1,.82-1,4,4,0,0,1,1.27-.66,5.43,5.43,0,0,1,1.67-.24,5.05,5.05,0,0,1,2,.37A3.08,3.08,0,0,1,16.6,71a3.17,3.17,0,0,1,.5,1.85v4.06a7.42,7.42,0,0,0,.1,1.29,3.77,3.77,0,0,0,.28.86v.15H14.93a3.6,3.6,0,0,1-.29-1,9.37,9.37,0,0,1-.09-1.18Zm.34-3.64,0,1.43H13.49a3.23,3.23,0,0,0-.87.11,1.64,1.64,0,0,0-.6.33,1.26,1.26,0,0,0-.36.47,1.64,1.64,0,0,0-.1.6,1.08,1.08,0,0,0,.15.59,1,1,0,0,0,.43.4,1.34,1.34,0,0,0,.66.14,2,2,0,0,0,1-.23,1.8,1.8,0,0,0,.65-.56,1.18,1.18,0,0,0,.25-.63l.66,1.07a4.41,4.41,0,0,1-.38.75,3.75,3.75,0,0,1-.61.73,2.92,2.92,0,0,1-.89.55,3.22,3.22,0,0,1-1.23.22A3.69,3.69,0,0,1,10.6,79a2.92,2.92,0,0,1-1.16-1A2.63,2.63,0,0,1,9,76.55a3,3,0,0,1,.28-1.33,2.66,2.66,0,0,1,.82-1,3.8,3.8,0,0,1,1.38-.6,7.89,7.89,0,0,1,1.92-.21Z"/><path class="cls-9" d="M23,77.41a1.84,1.84,0,0,0,.83-.17,1.32,1.32,0,0,0,.56-.51,1.43,1.43,0,0,0,.22-.78H27a3.11,3.11,0,0,1-.53,1.78A3.59,3.59,0,0,1,25,79a4.32,4.32,0,0,1-2,.45A4.65,4.65,0,0,1,21.1,79a3.64,3.64,0,0,1-1.36-1,4.46,4.46,0,0,1-.82-1.52,6.44,6.44,0,0,1-.27-1.89v-.25a6.28,6.28,0,0,1,.27-1.88,4.33,4.33,0,0,1,.82-1.53,3.78,3.78,0,0,1,1.36-1A4.73,4.73,0,0,1,23,69.53a4.45,4.45,0,0,1,2.05.45,3.44,3.44,0,0,1,1.39,1.28,3.76,3.76,0,0,1,.51,2H24.59a1.91,1.91,0,0,0-.2-.86,1.41,1.41,0,0,0-.55-.61,1.49,1.49,0,0,0-.87-.24,1.51,1.51,0,0,0-1.45.87,3.12,3.12,0,0,0-.27.91,8.67,8.67,0,0,0-.07,1v.25a9.16,9.16,0,0,0,.07,1.07,3,3,0,0,0,.27.9,1.54,1.54,0,0,0,.55.63,1.66,1.66,0,0,0,.91.22Z"/><path class="cls-9" d="M32.82,79.4a5.23,5.23,0,0,1-2-.36,4.42,4.42,0,0,1-1.49-1,4.27,4.27,0,0,1-.93-1.47,4.86,4.86,0,0,1-.33-1.79v-.35a5.88,5.88,0,0,1,.31-2,4.58,4.58,0,0,1,.88-1.56,3.69,3.69,0,0,1,1.41-1,4.93,4.93,0,0,1,3.65,0,3.49,3.49,0,0,1,1.31.95,4,4,0,0,1,.81,1.47,6.27,6.27,0,0,1,.27,1.9v1.06H29.16V73.56h5.07v-.2a2.19,2.19,0,0,0-.19-.94,1.52,1.52,0,0,0-.56-.67,1.79,1.79,0,0,0-1-.24,1.6,1.6,0,0,0-.86.22,1.73,1.73,0,0,0-.59.61,3.16,3.16,0,0,0-.33.94,5.94,5.94,0,0,0-.11,1.16v.35a3.5,3.5,0,0,0,.16,1,2.65,2.65,0,0,0,.47.84,2.08,2.08,0,0,0,.73.54,2.44,2.44,0,0,0,1,.19,3,3,0,0,0,1.27-.26,2.77,2.77,0,0,0,1-.81l1.23,1.33a3.77,3.77,0,0,1-.82.83,4.47,4.47,0,0,1-1.23.65,5.18,5.18,0,0,1-1.64.25Z"/><path class="cls-9" d="M41,66.42v12.8H38.32V66.42Zm7.66,0-5.07,6.32-2.93,3.15-.47-2.5,2-2.71,3.27-4.26Zm-3,12.8L41.85,73.3l1.95-1.63,4.94,7.55Z"/><rect class="cls-9" x="49.94" y="66.42" width="2.62" height="12.8"/><path class="cls-9" d="M60.5,66.42v12.8H57.87V66.42Zm3.93,0v2.06H54V66.42Z"/></g></g></svg>